<svg width="12" height="13" viewBox="0 0 12 13" fill="none" xmlns="http://www.w3.org/2000/svg">
<path d="M6.81215 0.788563C6.58528 0.561171 6.27757 0.433388 5.95669 0.433319H1.6177C1.29679 0.433319 0.989026 0.561057 0.76211 0.788433C0.535195 1.01581 0.407715 1.3242 0.407715 1.64575V5.99355C0.407783 6.31508 0.535308 6.62342 0.762239 6.85074L5.60216 11.7005C5.82907 11.9278 6.13678 12.0555 6.45762 12.0555C6.77847 12.0555 7.08617 11.9278 7.31308 11.7005L11.6521 7.35269C11.8789 7.12532 12.0063 6.81699 12.0063 6.49549C12.0063 6.174 11.8789 5.86567 11.6521 5.6383L6.81215 0.788563ZM3.43267 4.67684C3.11168 4.67676 2.80387 4.54891 2.57696 4.32142C2.35004 4.09394 2.22261 3.78544 2.22269 3.4638C2.22277 3.14216 2.35036 2.83373 2.57738 2.60635C2.80441 2.37898 3.11229 2.25129 3.43327 2.25137C3.75426 2.25145 4.06207 2.37929 4.28898 2.60678C4.5159 2.83427 4.64333 3.14277 4.64325 3.46441C4.64317 3.78605 4.51559 4.09448 4.28856 4.32185C4.06153 4.54923 3.75366 4.67692 3.43267 4.67684Z" fill="#7662B3"/>
</svg>
